<svg xmlns="http://www.w3.org/2000/svg" width="1600" height="900" viewBox="0 0 1600 900" role="img" aria-labelledby="t d"><title id="t">Abonnement et résiliation Wyylde — hero</title><desc id="d">Illustration éditoriale originale 1600 par 900, concept calendar, pour Abonnement et résiliation Wyylde.</desc><defs><linearGradient id="bg" x1="0" x2="1"><stop offset="0" stop-color="#0b0c12"/><stop offset="1" stop-color="#24172c"/></linearGradient></defs><rect width="1600" height="900" fill="url(#bg)"/><text x="90" y="85" fill="#ff91be" font-family="Arial" font-size="30" font-weight="700">WYYLDE AVIS LAB • HERO</text><text x="90" y="845" fill="#b9afbd" font-family="Arial" font-size="24">Abonnement et résiliation Wyylde</text><g transform="translate(290 120)"><rect width="1020" height="660" rx="36" fill="#171522" stroke="#3a3047" stroke-width="3"/><rect width="1020" height="120" rx="36" fill="#f06da6"/><rect x="95" y="185" width="80" height="64" rx="16" fill="#f7c665"/><rect x="235" y="185" width="80" height="64" rx="16" fill="#312a39"/><rect x="375" y="185" width="80" height="64" rx="16" fill="#312a39"/><rect x="515" y="185" width="80" height="64" rx="16" fill="#312a39"/><rect x="655" y="185" width="80" height="64" rx="16" fill="#312a39"/><rect x="795" y="185" width="80" height="64" rx="16" fill="#f7c665"/><rect x="95" y="290" width="80" height="64" rx="16" fill="#312a39"/><rect x="235" y="290" width="80" height="64" rx="16" fill="#312a39"/><rect x="375" y="290" width="80" height="64" rx="16" fill="#312a39"/><rect x="515" y="290" width="80" height="64" rx="16" fill="#312a39"/><rect x="655" y="290" width="80" height="64" rx="16" fill="#f7c665"/><rect x="795" y="290" width="80" height="64" rx="16" fill="#312a39"/><rect x="95" y="395" width="80" height="64" rx="16" fill="#312a39"/><rect x="235" y="395" width="80" height="64" rx="16" fill="#312a39"/><rect x="375" y="395" width="80" height="64" rx="16" fill="#312a39"/><rect x="515" y="395" width="80" height="64" rx="16" fill="#f7c665"/><rect x="655" y="395" width="80" height="64" rx="16" fill="#312a39"/><rect x="795" y="395" width="80" height="64" rx="16" fill="#312a39"/><rect x="95" y="500" width="80" height="64" rx="16" fill="#312a39"/><rect x="235" y="500" width="80" height="64" rx="16" fill="#312a39"/><rect x="375" y="500" width="80" height="64" rx="16" fill="#f7c665"/><rect x="515" y="500" width="80" height="64" rx="16" fill="#312a39"/><rect x="655" y="500" width="80" height="64" rx="16" fill="#312a39"/><rect x="795" y="500" width="80" height="64" rx="16" fill="#312a39"/></g></svg>