<svg xmlns="http://www.w3.org/2000/svg" width="1600" height="900" viewBox="0 0 1600 900" role="img" aria-labelledby="t d"><title id="t">Wyylde avis 2026 — hero</title><desc id="d">Illustration éditoriale originale 1600 par 900, concept reviews, optimisée pour le guide Wyylde avis 2026.</desc><defs><linearGradient id="bg" x1="0" x2="1"><stop offset="0" stop-color="#0b0c12"/><stop offset="1" stop-color="#24172c"/></linearGradient></defs><rect width="1600" height="900" fill="url(#bg)"/><text x="90" y="85" fill="#ff91be" font-family="Arial" font-size="30" font-weight="700">WYYLDE AVIS LAB • HERO</text><text x="90" y="845" fill="#b9afbd" font-family="Arial" font-size="24">Wyylde avis 2026</text><g transform="translate(180 220)"><rect width="1240" height="470" rx="36" fill="#171522" stroke="#3a3047" stroke-width="3"/><g fill="#9168f6"><path d="M120 125 l18 55 h58 l-47 34 18 55-47-34-47 34 18-55-47-34h58z"/><path d="M260 125 l18 55 h58 l-47 34 18 55-47-34-47 34 18-55-47-34h58z"/><path d="M400 125 l18 55 h58 l-47 34 18 55-47-34-47 34 18-55-47-34h58z"/><path d="M540 125 l18 55 h58 l-47 34 18 55-47-34-47 34 18-55-47-34h58z"/><path d="M680 125 l18 55 h58 l-47 34 18 55-47-34-47 34 18-55-47-34h58z"/></g><rect x="110" y="330" width="760" height="26" rx="13" fill="#b9afbd"/><rect x="110" y="385" width="940" height="22" rx="11" fill="#655c70"/></g></svg>